<svg width="240" height="240" viewBox="0 0 240 240" fill="none" xmlns="http://www.w3.org/2000/svg">
<path d="M13.2932 180.964L96.8931 229.547C98.665 230.58 101.519 230.58 103.291 229.563L230.319 156.214C232.09 155.197 232.09 153.54 230.319 152.507L146.719 103.924C144.963 102.907 142.109 102.907 140.337 103.924L13.3096 177.256C11.5378 178.29 11.5213 179.947 13.2932 180.964Z" fill="#AABAFD"/>
<path d="M112.083 185.901C111.084 186.478 111.09 187.418 112.082 187.994L132.69 199.97C133.682 200.547 135.305 200.553 136.304 199.977L176.913 176.531C177.912 175.954 177.906 175.014 176.914 174.438L156.306 162.462C155.314 161.885 153.691 161.878 152.693 162.455L112.083 185.901Z" fill="#2E4277"/>
<path d="M11.9807 179.126L11.9971 184.017C11.9971 184.673 12.44 185.345 13.3095 185.854L96.9095 234.437C98.6813 235.454 101.536 235.454 103.308 234.437L230.335 161.105C231.221 160.596 231.664 159.924 231.664 159.234L231.647 154.361C231.647 155.033 231.205 155.706 230.319 156.214L103.291 229.563C101.519 230.58 98.6649 230.58 96.8931 229.547L13.2931 180.964C12.4073 180.455 11.9807 179.799 11.9807 179.126Z" fill="#798FFE"/>
<path d="M140.09 7.18873C141.86 6.16676 143.299 6.98713 143.305 9.02117L143.532 98.3906C143.537 100.413 142.107 102.902 140.337 103.924L15.1403 176.2C13.3701 177.222 11.9305 176.389 11.9247 174.367L11.6983 84.9977C11.6925 82.9637 13.1228 80.4863 14.8929 79.4643L140.09 7.18873Z" fill="#1B2A4F"/>
<path d="M8.33612 83.0498L8.5658 172.416C8.5658 173.416 8.92676 174.138 9.50094 174.466L12.8587 176.419C12.2845 176.091 11.9236 175.369 11.9236 174.368L11.6939 85.0025C11.6939 82.9681 13.1212 80.491 14.893 79.4575L140.09 7.19007C140.976 6.68151 141.78 6.63236 142.371 6.9604L139.013 5.00771C138.439 4.67958 137.619 4.72873 136.733 5.23729L11.5352 77.5212C9.7634 78.5383 8.33612 81.0155 8.33612 83.0498Z" fill="#384E85"/>
<path d="M16.217 83.9078L16.4349 170.244L139.013 99.4804L138.795 13.144L16.217 83.9078Z" fill="#384E85"/>
<path d="M16.217 83.9078L16.2536 98.3889L138.832 27.6252L138.795 13.144L16.217 83.9078Z" fill="#AABAFD"/>
<path d="M118.584 30.2762C119.766 29.5939 120.727 30.118 120.73 31.4758C120.734 32.8336 119.78 34.487 118.598 35.1693C117.437 35.8398 116.476 35.2923 116.472 33.9344C116.468 32.5765 117.423 30.9467 118.584 30.2762Z" fill="white"/>
<path d="M125.41 26.3354C126.571 25.6649 127.532 26.189 127.536 27.5468C127.539 28.9047 126.585 30.558 125.424 31.2285C124.242 31.9108 123.281 31.3632 123.277 30.0054C123.273 28.6475 124.228 27.0177 125.41 26.3354Z" fill="white"/>
<path d="M132.215 22.4064C133.397 21.7241 134.357 22.2482 134.361 23.6061C134.365 24.9639 133.411 26.6173 132.229 27.2996C131.047 27.9818 130.086 27.4343 130.083 26.0764C130.079 24.7185 131.033 23.0887 132.215 22.4064Z" fill="white"/>
<path d="M38.9299 174.966L30.9058 179.63L27.4491 177.634L35.4732 172.971L38.9299 174.966Z" fill="#384E85"/>
<path d="M125.269 124.792L117.234 129.461L113.777 127.466L121.812 122.796L125.269 124.792Z" fill="#384E85"/>
<path d="M146.854 112.248L138.818 116.918L135.362 114.922L143.397 110.252L146.854 112.248Z" fill="#384E85"/>
<path d="M132.452 141.448L124.428 146.111L117.293 141.992L125.317 137.329L132.452 141.448Z" fill="#384E85"/>
<path d="M172.029 139.292L163.994 143.962L156.848 139.836L164.883 135.167L172.029 139.292Z" fill="#384E85"/>
<path d="M182.827 133.017L174.792 137.687L158.65 128.367L166.685 123.698L182.827 133.017Z" fill="#384E85"/>
<path d="M155.85 117.442L141.034 126.052L133.888 121.926L148.704 113.316L155.85 117.442Z" fill="#384E85"/>
<path d="M138.283 127.651L130.248 132.32L123.102 128.195L131.137 123.525L138.283 127.651Z" fill="#384E85"/>
<path d="M164.835 122.63L146.002 133.574L138.867 129.455L157.7 118.51L164.835 122.63Z" fill="#384E85"/>
<path d="M143.25 135.173L135.215 139.843L128.08 135.723L136.115 131.054L143.25 135.173Z" fill="#384E85"/>
<path d="M152.246 140.367L144.211 145.037L137.065 140.911L145.1 136.241L152.246 140.367Z" fill="#384E85"/>
<path d="M127.485 133.926L119.45 138.596L112.304 134.47L120.339 129.8L127.485 133.926Z" fill="#384E85"/>
<path d="M114.471 131.067L106.447 135.73L102.99 133.734L111.014 129.071L114.471 131.067Z" fill="#384E85"/>
<path d="M103.684 137.335L95.6491 142.005L92.1925 140.009L100.228 135.34L103.684 137.335Z" fill="#384E85"/>
<path d="M109.077 165.454L101.042 170.124L93.8959 165.998L101.931 161.329L109.077 165.454Z" fill="#384E85"/>
<path d="M92.8862 143.61L84.8621 148.273L81.4055 146.278L89.4296 141.615L92.8862 143.61Z" fill="#384E85"/>
<path d="M105.9 146.47L97.876 151.133L90.73 147.007L98.7542 142.344L105.9 146.47Z" fill="#384E85"/>
<path d="M82.0993 149.879L74.0642 154.548L70.6075 152.553L78.6427 147.883L82.0993 149.879Z" fill="#384E85"/>
<path d="M95.1132 152.738L87.0781 157.408L79.9321 153.282L87.9672 148.612L95.1132 152.738Z" fill="#384E85"/>
<path d="M110.867 153.992L102.843 158.655L95.7085 154.536L103.733 149.873L110.867 153.992Z" fill="#384E85"/>
<path d="M71.3124 156.148L63.2773 160.817L59.8207 158.821L67.8558 154.152L71.3124 156.148Z" fill="#384E85"/>
<path d="M84.3264 159.007L76.2912 163.676L69.1453 159.551L77.1804 154.881L84.3264 159.007Z" fill="#384E85"/>
<path d="M119.864 159.186L111.84 163.849L104.694 159.723L112.718 155.06L119.864 159.186Z" fill="#384E85"/>
<path d="M100.081 160.261L92.0455 164.93L84.9106 160.811L92.9457 156.141L100.081 160.261Z" fill="#384E85"/>
<path d="M60.5147 162.423L52.4796 167.092L49.023 165.097L57.0581 160.427L60.5147 162.423Z" fill="#384E85"/>
<path d="M73.5285 165.282L65.4933 169.951L58.3474 165.826L66.3825 161.156L73.5285 165.282Z" fill="#384E85"/>
<path d="M89.2936 166.529L81.2585 171.199L74.1237 167.079L82.1588 162.41L89.2936 166.529Z" fill="#384E85"/>
<path d="M62.7416 171.551L54.7065 176.22L47.5605 172.094L55.5957 167.425L62.7416 171.551Z" fill="#384E85"/>
<path d="M98.2899 171.723L90.2548 176.393L83.1088 172.267L91.1439 167.597L98.2899 171.723Z" fill="#384E85"/>
<path d="M78.496 172.804L70.4609 177.474L63.326 173.354L71.3611 168.685L78.496 172.804Z" fill="#384E85"/>
<path d="M87.4922 177.998L79.457 182.668L72.3111 178.542L80.3462 173.872L87.4922 177.998Z" fill="#384E85"/>
<path d="M129.322 164.111L88.453 187.861L81.3071 183.736L122.176 159.985L129.322 164.111Z" fill="#384E85"/>
<path d="M76.7052 184.267L68.67 188.936L61.524 184.81L69.5591 180.141L76.7052 184.267Z" fill="#384E85"/>
<path d="M67.709 179.073L48.887 190.011L41.7521 185.892L60.5742 174.954L67.709 179.073Z" fill="#384E85"/>
<path d="M65.9073 190.542L57.8831 195.205L50.7372 191.079L58.7613 186.416L65.9073 190.542Z" fill="#384E85"/>
<path d="M85.7013 189.461L66.8793 200.399L59.7334 196.273L78.5554 185.335L85.7013 189.461Z" fill="#384E85"/>
<path d="M49.7277 168.691L41.6925 173.361L38.2359 171.365L46.2711 166.696L49.7277 168.691Z" fill="#384E85"/>
<path d="M136.056 118.523L128.021 123.193L124.564 121.197L132.599 116.527L136.056 118.523Z" fill="#384E85"/>
<path d="M116.698 140.195L108.663 144.864L101.517 140.738L109.552 136.069L116.698 140.195Z" fill="#384E85"/>
<path d="M139.658 158.105L131.623 162.774L124.477 158.649L132.512 153.979L139.658 158.105Z" fill="#384E85"/>
<path d="M130.662 152.911L122.627 157.58L115.481 153.455L123.516 148.785L130.662 152.911Z" fill="#384E85"/>
<path d="M121.666 147.717L113.63 152.386L106.496 148.267L114.531 143.597L121.666 147.717Z" fill="#384E85"/>
<path d="M161.243 145.561L153.208 150.231L146.062 146.105L154.097 141.435L161.243 145.561Z" fill="#384E85"/>
<path d="M150.445 151.836L142.42 156.499L135.275 152.374L143.299 147.71L150.445 151.836Z" fill="#384E85"/>
<path d="M51.9435 177.826L39.9019 184.824L32.7559 180.698L44.7976 173.7L51.9435 177.826Z" fill="#384E85"/>
<path d="M27.6114 106.728C29.1672 105.83 30.0858 106.027 30.7432 106.622L29.8601 108.054C29.2953 107.485 28.5703 107.531 27.6846 108.042C25.8823 109.083 24.7393 111.347 24.7455 113.524C24.7516 115.693 25.9038 116.65 27.706 115.609C28.5917 115.098 29.3146 114.281 29.8743 113.081L30.7627 113.499C30.1108 114.859 29.1963 116.114 27.6405 117.012C25.0989 118.479 23.3827 117.219 23.3745 114.316C23.3663 111.413 25.0698 108.196 27.6114 106.728Z" fill="#D9DDF6"/>
<path d="M33.3412 111.442C33.8649 111.14 34.3131 111.395 34.3148 111.997C34.3165 112.608 33.8712 113.37 33.3475 113.673C32.8161 113.979 32.3756 113.728 32.3739 113.118C32.3722 112.516 32.8098 111.749 33.3412 111.442Z" fill="#D9DDF6"/>
<path d="M34.0063 105.044C34.3859 104.39 34.3869 103.683 34.0086 103.463C33.6302 103.243 33.0158 103.594 32.6362 104.247C32.2566 104.901 32.2556 105.608 32.6339 105.828C33.0122 106.048 33.6267 105.697 34.0063 105.044Z" fill="#D9DDF6"/>
<path d="M36.288 97.8182L40.5108 109.741L39.471 110.341L35.2482 98.4185L36.288 97.8182Z" fill="#D9DDF6"/>
<path d="M44.5175 91.6931L51.889 95.9027L44.5654 108.597L43.3832 107.923L49.5477 97.2545L43.343 93.7274L44.5175 91.6931Z" fill="#D9DDF6"/>
<path d="M60.1205 95.9194L60.1294 99.0877L52.4199 103.539L52.4109 100.371L60.1205 95.9194Z" fill="#D9DDF6"/>
</svg>
